<?xml version="1.0" standalone="yes"?>
<svg width="900" height="300">
<path style="fill:#000000; stroke:none;" d="M0 0L0 300L900 300L900 0L0 0z"/>
<path style="fill:#ffffff; stroke:none;" d="M721 47.5293C706.349 50.9103 699.356 65.0839 699.015 79C698.109 115.951 699 153.037 699 190C699 204.867 695.423 225.618 703.221 239C712.455 254.846 727.089 253 743 253L828 253C840.204 253 856.256 255.752 868 252.362C885.27 247.377 888 229.083 888 214L888 106C888 90.323 891.341 71.3709 881.387 58.0039C871.398 44.5883 855.743 47 841 47L760 47C747.73 47 732.97 44.7669 721 47.5293z"/>
<path style="fill:#dcdcdc; stroke:none;" d="M788 59L788 60L796 60L788 59z"/>
<path style="fill:#8e8e8e; stroke:none;" d="M780 60L780 61L784 61L780 60z"/>
<path style="fill:#4d4d4d; stroke:none;" d="M856 222C847.702 217.209 837.608 209.797 832 202C850.695 192.097 856 164.047 856 145C856 126.858 856.894 109.69 848.483 93C832.56 61.4018 786.572 48.8447 757 69.5177C717.247 97.3079 716.804 173.484 754 203.532C769.712 216.224 784.231 211.609 802 215.279C810.904 217.118 820.036 228.043 827 233.6C829.604 235.678 833.303 239.712 837 239.118C841.278 238.431 845.887 232.73 848.999 229.95C851.78 227.466 854.318 225.323 856 222z"/>
<path style="fill:#a5a5a5; stroke:none;" d="M801 60L801 61L804 61L801 60z"/>
<path style="fill:#bdbdbd; stroke:none;" d="M774 61L774 62L777 62L774 61z"/>
<path style="fill:#919191; stroke:none;" d="M806 61L806 62L809 62L806 61z"/>
<path style="fill:#858585; stroke:none;" d="M810 62L810 63L813 63L810 62z"/>
<path style="fill:#c9c9c9; stroke:none;" d="M823.667 67.3333L824.333 67.6667L823.667 67.3333z"/>
<path style="fill:#a9a9a9; stroke:none;" d="M753 72L754 73L753 72z"/>
<path style="fill:#ffffff; stroke:none;" d="M45 186L11 186C11.335 226.47 51.1466 243.17 87 238.13C103.248 235.847 122.295 228.865 128.452 211.996C141.822 175.366 111.765 155.47 82 144.424C71.2524 140.436 52.9543 137.333 49.6921 124C47.414 114.689 59.0015 106.535 67 106.029C82.8966 105.025 96.4372 110.1 98 128L131 128C130.995 86.7441 87.4963 70.1824 52 80.5903C38.4138 84.5739 23.9546 91.8686 18.5617 106C5.78059 139.492 34.4297 161.136 63 170.406C74.9842 174.294 94.3039 178.29 97.2485 193C99.4753 204.125 86.2781 211.539 77 211.961C59.966 212.734 45.1538 204.331 45 186M150 80L150 165C150 180.596 148.233 197.815 156.029 211.996C176.415 249.079 246.468 248.862 265.055 210C271.8 195.897 270 179.228 270 164L270 80L237 80L237 171C237 183.364 237.343 199.067 225.961 206.892C210.326 217.641 188.659 209.505 184.514 191C181.558 177.805 183 163.435 183 150L183 80L150 80M295 80L295 236L328 236L328 180L350.895 181.028L359.587 195L380 236L417 236C413.015 212.857 391.963 193.418 385 171C416.306 160.941 420.167 109.343 395 91.3009C368.727 72.4669 325.554 80 295 80M422 236C431.24 236 447.326 239.144 455.775 235.397C465.326 231.16 460.789 211.736 469.418 206.028C472.39 204.062 477.613 205 481 205L509 205C512.789 205 518.449 203.987 521.582 206.603C527.086 211.201 531.3 229.011 532 236L568 236L550.171 186L511 80C503.589 80 486.758 76.8344 480.558 81.0278C472.363 86.5702 469.094 109.027 465.28 118C455.049 142.072 446.944 167.397 438.061 192C432.908 206.271 424.657 221.047 422 236M559 80L559 107L605 107L605 236L639 236L639 107L686 107L686 80L559 80z"/>
<path style="fill:#909090; stroke:none;" d="M786 85L786 86L797 86L786 85z"/>
<path style="fill:#ffffff; stroke:none;" d="M783 86.6373C771.315 89.9584 765.586 100.216 762.345 111C754.172 138.195 758.776 200.277 801 188.841C813.636 185.419 819.808 175.109 822.761 163C829.43 135.649 826.566 74.2554 783 86.6373z"/>
<path style="fill:#858585; stroke:none;" d="M800.667 86.3333L801.333 86.6667L800.667 86.3333z"/>
<path style="fill:#8b8b8b; stroke:none;" d="M850.333 97.6667L850.667 98.3333L850.333 97.6667z"/>
<path style="fill:#8f8f8f; stroke:none;" d="M733.333 99.6667L733.667 100.333L733.333 99.6667z"/>
<path style="fill:#a9a9a9; stroke:none;" d="M851.333 99.6667L851.667 100.333L851.333 99.6667z"/>
<path style="fill:#c8c8c8; stroke:none;" d="M820.333 104.667L820.667 105.333L820.333 104.667z"/>
<path style="fill:#c3c3c3; stroke:none;" d="M763.333 106.667L763.667 107.333L763.333 106.667z"/>
<path style="fill:#a3a3a3; stroke:none;" d="M821.333 106.667L821.667 107.333L821.333 106.667z"/>
<path style="fill:#000000; stroke:none;" d="M328 107L328 153C339.733 153 355.21 155.617 366 150.161C379.604 143.282 382.191 120.732 368.985 111.969C357.703 104.483 340.842 107 328 107z"/>
<path style="fill:#949494; stroke:none;" d="M762 108L762 111L763 111L762 108z"/>
<path style="fill:#b7b7b7; stroke:none;" d="M729.333 112.667L729.667 113.333L729.333 112.667z"/>
<path style="fill:#979797; stroke:none;" d="M855 112L855 116L856 116L855 112z"/>
<path style="fill:#cacaca; stroke:none;" d="M728 117L728 120L729 120L728 117z"/>
<path style="fill:#bababa; stroke:none;" d="M856 117L856 121L857 121L856 117z"/>
<path style="fill:#b2b2b2; stroke:none;" d="M760 118L760 121L761 121L760 118z"/>
<path style="fill:#9f9f9f; stroke:none;" d="M824 118L824 121L825 121L824 118z"/>
<path style="fill:#888888; stroke:none;" d="M856 121L856 129L857 129L856 121z"/>
<path style="fill:#c7c7c7; stroke:none;" d="M727 123L727 149L728 149L727 123z"/>
<path style="fill:#d7d7d7; stroke:none;" d="M857 123L857 147L858 147L857 123z"/>
<path style="fill:#000000; stroke:none;" d="M495 124L477 177L513 177L503.771 149L495 124z"/>
<path style="fill:#a6a6a6; stroke:none;" d="M759 124L759 151L760 151L759 124z"/>
<path style="fill:#a7a7a7; stroke:none;" d="M825 124L825 149L826 149L825 124z"/>
<path style="fill:#666666; stroke:none;" d="M856 129L856 147L857 147L856 129z"/>
<path style="fill:#949494; stroke:none;" d="M856 147L856 156L857 156L856 147z"/>
<path style="fill:#878787; stroke:none;" d="M728 148L728 157L729 157L728 148z"/>
<path style="fill:#a9a9a9; stroke:none;" d="M824 154L824 157L825 157L824 154z"/>
<path style="fill:#848484; stroke:none;" d="M855 157L855 160L856 160L855 157z"/>
<path style="fill:#bcbcbc; stroke:none;" d="M761.333 159.667L761.667 160.333L761.333 159.667z"/>
<path style="fill:#b6b6b6; stroke:none;" d="M823.333 159.667L823.667 160.333L823.333 159.667z"/>
<path style="fill:#c7c7c7; stroke:none;" d="M729.333 161.667L729.667 162.333L729.333 161.667z"/>
<path style="fill:#bbbbbb; stroke:none;" d="M762.333 163.667L762.667 164.333L762.333 163.667z"/>
<path style="fill:#8a8a8a; stroke:none;" d="M822 164L822 167L823 167L822 164z"/>
<path style="fill:#c5c5c5; stroke:none;" d="M730.333 165.667L730.667 166.333L730.333 165.667z"/>
<path style="fill:#a1a1a1; stroke:none;" d="M763.333 167.667L763.667 168.333L763.333 167.667z"/>
<path style="fill:#919191; stroke:none;" d="M821.333 167.667L821.667 168.333L821.333 167.667z"/>
<path style="fill:#b8b8b8; stroke:none;" d="M820.333 169.667L820.667 170.333L820.333 169.667z"/>
<path style="fill:#a2a2a2; stroke:none;" d="M733.333 174.667L733.667 175.333L733.333 174.667z"/>
<path style="fill:#a8a8a8; stroke:none;" d="M850.333 176.667L850.667 177.333L850.333 176.667z"/>
<path style="fill:#bdbdbd; stroke:none;" d="M734.333 177.667L734.667 178.333L734.333 177.667z"/>
<path style="fill:#989898; stroke:none;" d="M798.667 189.333L799.333 189.667L798.667 189.333z"/>
<path style="fill:#878787; stroke:none;" d="M761.667 208.333L762.333 208.667L761.667 208.333z"/>
<path style="fill:#848484; stroke:none;" d="M763.667 209.333L764.333 209.667L763.667 209.333z"/>
<path style="fill:#a4a4a4; stroke:none;" d="M841 211L842 212L841 211z"/>
<path style="fill:#949494; stroke:none;" d="M776 214L776 215L781 215L776 214z"/>
<path style="fill:#cbcbcb; stroke:none;" d="M780 215L780 216L785 216L780 215z"/>
<path style="fill:#979797; stroke:none;" d="M785 215L785 216L800 216L785 215z"/>
<path style="fill:#d2d2d2; stroke:none;" d="M800 215L800 216L805 216L800 215z"/>
</svg>
