<?xml version="1.0" standalone="no"?>
<!DOCTYPE svg PUBLIC "-//W3C//DTD SVG 20010904//EN"
 "http://www.w3.org/TR/2001/REC-SVG-20010904/DTD/svg10.dtd">
<svg version="1.0" xmlns="http://www.w3.org/2000/svg"
 width="900.000000pt" height="300.000000pt" viewBox="0 0 900.000000 300.000000"
 preserveAspectRatio="xMidYMid meet">

<g transform="translate(0.000000,300.000000) scale(0.100000,-0.100000)"
fill="#000000" stroke="none">
<path d="M7820 2393 c-138 -24 -248 -80 -341 -175 -148 -150 -208 -351 -196
-658 10 -251 64 -396 197 -532 61 -61 93 -85 161 -117 102 -50 159 -61 301
-61 l108 0 154 -125 c85 -69 157 -125 161 -125 3 0 48 37 98 82 51 45 93 82
95 83 1 1 -54 46 -122 100 l-125 99 62 65 c113 120 170 263 189 470 22 242
-15 461 -103 607 -69 113 -196 218 -313 258 -89 30 -241 44 -326 29z m238
-277 c51 -26 110 -84 136 -134 9 -17 26 -65 38 -109 19 -68 22 -101 22 -253
-1 -148 -4 -187 -23 -255 -50 -185 -160 -273 -328 -263 -148 8 -239 96 -289
279 -25 90 -26 384 -1 482 28 113 72 180 160 247 60 45 202 48 285 6z"/>
</g>
</svg>
