<?xml version="1.0" encoding="utf-8"?>
<!-- Generator: Adobe Illustrator 23.0.0, SVG Export Plug-In . SVG Version: 6.00 Build 0)  -->
<svg version="1.1" id="Layer_1" xmlns="http://www.w3.org/2000/svg" xmlns:xlink="http://www.w3.org/1999/xlink" x="0px" y="0px"
	 viewBox="0 0 150 150" style="enable-background:new 0 0 150 150;" xml:space="preserve">
<style type="text/css">
	.st0{fill:#3B4145;}
	.st1{fill:#525A61;}
	.st2{fill:#FFB751;}
	.st3{fill:#FFD764;}
</style>
<g>
	<path class="st0" d="M94.61,18.35l52.36,90.7c1.92,3.33,3.02,7.18,3.02,11.3c0,12.5-10.13,22.64-22.64,22.64H75L56.89,75L75,7.02
		C83.38,7.02,90.7,11.58,94.61,18.35z"/>
	<path class="st1" d="M55.39,18.35l-52.36,90.7C1.1,112.38,0,116.23,0,120.35c0,12.5,10.13,22.64,22.64,22.64H75V7.02
		C66.62,7.02,59.3,11.58,55.39,18.35z"/>
	<path class="st2" d="M139.13,113.58l-52.36-90.7c-2.36-4.09-6.69-6.67-11.38-6.8l44.79,117.85h7.19c7.49,0,13.58-6.09,13.58-13.58
		C140.95,117.97,140.32,115.63,139.13,113.58z"/>
	<path class="st3" d="M130.33,113.58c1.02,2.05,1.56,4.39,1.56,6.77c0,7.49-5.25,13.58-11.72,13.58H22.64
		c-7.49,0-13.58-6.09-13.58-13.58c0-2.38,0.63-4.72,1.81-6.77l52.36-90.7c2.43-4.2,6.94-6.81,11.77-6.81c0.13,0,0.26,0,0.39,0.01
		c4.02,0.16,7.74,2.73,9.76,6.8L130.33,113.58z"/>
	<path class="st0" d="M75,103.75v15.09c4.17,0,7.55-3.38,7.55-7.55C82.55,107.13,79.17,103.75,75,103.75z"/>
	<path class="st1" d="M75,103.75c0.83,0,1.51,3.38,1.51,7.55c0,4.17-0.68,7.55-1.51,7.55c-4.17,0-7.55-3.38-7.55-7.55
		S70.83,103.75,75,103.75z"/>
	<path class="st0" d="M75,38.86V94.7c4.17,0,7.55-3.38,7.55-7.55V46.41C82.55,42.24,79.17,38.86,75,38.86z"/>
	<path class="st1" d="M75,38.86c0.83,0,1.51,3.38,1.51,7.55v40.74c0,4.16-0.68,7.55-1.51,7.55c-4.17,0-7.55-3.38-7.55-7.55V46.41
		C67.45,42.24,70.83,38.86,75,38.86z"/>
</g>
</svg>
